<?xml version="1.0" encoding="UTF-8"?>
<svg version="1.1" xmlns="http://www.w3.org/2000/svg" width="250" height="60">
<path d="M0 0 C6 0 6 0 9 2 C9.6875 4.625 9.6875 4.625 10 7 C10.99 6.34 11.98 5.68 13 5 C15.9375 4.875 15.9375 4.875 19 5 C20.32 5 21.64 5 23 5 C26.33333333 5 29.66666667 5 33 5 C33.33 4.01 33.66 3.02 34 2 C35.9375 2.375 35.9375 2.375 38 3 C38.495 3.99 38.495 3.99 39 5 C39.33 3.35 39.66 1.7 40 0 C44.875 3.75 44.875 3.75 46 6 C49.69418201 4.768606 51.35109746 2.79208646 54 0 C54.66 1.98 55.32 3.96 56 6 C57.093125 5.835 58.18625 5.67 59.3125 5.5 C65.16100786 4.70698199 71.10095928 5 77 5 C77.33 3.68 77.66 2.36 78 1 C81 2 81 2 82 4 C82.33 3.34 82.66 2.68 83 2 C84.32 2 85.64 2 87 2 C87.495 3.485 87.495 3.485 88 5 C89.258125 5 90.51625 5 91.8125 5 C96.54166667 5 101.27083333 5 106 5 C105.11223998 8.69900008 104.05418136 12.34550461 103 16 C102.38125 15.835 101.7625 15.67 101.125 15.5 C98.32568799 14.84133835 96.91456994 15.01999427 94.0625 15.6875 C91 16 91 16 89.125 14.5625 C88.75375 14.046875 88.3825 13.53125 88 13 C87.34 13.99 86.68 14.98 86 16 C84.68 15.34 83.36 14.68 82 14 C82 12.35 82 10.7 82 9 C81.34 11.31 80.68 13.62 80 16 C77.66705225 16.04241723 75.33297433 16.04092937 73 16 C72 15 72 15 71.9375 11.9375 C71.958125 10.968125 71.97875 9.99875 72 9 C71.34 9 70.68 9 70 9 C70 11.31 70 13.62 70 16 C69.38125 15.835 68.7625 15.67 68.125 15.5 C66.03936614 14.92365356 66.03936614 14.92365356 64 15 C63.67 15.33 63.34 15.66 63 16 C60.5625 16.1875 60.5625 16.1875 58 16 C57.34 15.34 56.68 14.68 56 14 C55.34 14.66 54.68 15.32 54 16 C51.9375 15.8125 51.9375 15.8125 50 15 C49.505 13.515 49.505 13.515 49 12 C47.68 12 46.36 12 45 12 C44.34 13.32 43.68 14.64 43 16 C42.01 15.67 41.02 15.34 40 15 C39.505 12.03 39.505 12.03 39 9 C38.34 11.31 37.68 13.62 37 16 C36.2575 15.814375 35.515 15.62875 34.75 15.4375 C32.11091567 14.83345638 32.11091567 14.83345638 30 15.5 C27.37353967 16.15661508 25.58030862 15.74693144 23 15 C22.34 14.34 21.68 13.68 21 13 C20.01 14.485 20.01 14.485 19 16 C17.9275 15.835 16.855 15.67 15.75 15.5 C10.74319279 14.69808567 10.74319279 14.69808567 6 16 C4.02 16 2.04 16 0 16 C0 10.72 0 5.44 0 0 Z M4 9 C4 9.66 4 10.32 4 11 C4.66 11 5.32 11 6 11 C6 10.34 6 9.68 6 9 C5.34 9 4.68 9 4 9 Z M25 9 C25.33 9.99 25.66 10.98 26 12 C26.66 11.67 27.32 11.34 28 11 C28 10.34 28 9.68 28 9 C27.01 9 26.02 9 25 9 Z M59 9 C59 9.99 59 10.98 59 12 C59.99 12 60.98 12 62 12 C62 11.01 62 10.02 62 9 C61.01 9 60.02 9 59 9 Z M92 9 C92 9.99 92 10.98 92 12 C92.99 11.67 93.98 11.34 95 11 C95 10.34 95 9.68 95 9 C94.01 9 93.02 9 92 9 Z " fill="#C7302B" transform="translate(107,21)"/>
<path d="M0 0 C1.32 0 2.64 0 4 0 C6.06838792 13.65722805 8.06385539 27.32340403 10 41 C10.20496094 40.21753906 10.40992188 39.43507812 10.62109375 38.62890625 C10.89050781 37.61699219 11.15992188 36.60507812 11.4375 35.5625 C11.70433594 34.55316406 11.97117188 33.54382812 12.24609375 32.50390625 C13 30 13 30 14 29 C16.01964199 28.92755947 18.04167124 28.91622812 20.0625 28.9375 C21.71958984 28.95103516 21.71958984 28.95103516 23.41015625 28.96484375 C24.26480469 28.97644531 25.11945313 28.98804687 26 29 C26.495 30.485 26.495 30.485 27 32 C25.41727399 33.58272601 23.61965997 33.34735747 21.4375 33.5625 C20.61121094 33.64628906 19.78492188 33.73007812 18.93359375 33.81640625 C18.29550781 33.87699219 17.65742187 33.93757813 17 34 C16.85900879 34.62044189 16.71801758 35.24088379 16.57275391 35.88012695 C15.92989791 38.69242449 15.27756447 41.50244009 14.625 44.3125 C14.29242188 45.77719727 14.29242188 45.77719727 13.953125 47.27148438 C13.62441406 48.67817383 13.62441406 48.67817383 13.2890625 50.11328125 C12.99056396 51.40939331 12.99056396 51.40939331 12.68603516 52.73168945 C12 55 12 55 10 58 C9.01 57.67 8.02 57.34 7 57 C5.31630041 46.77433117 3.725631 36.56767447 2.64697266 26.25805664 C2.27957168 22.507819 2.27957168 22.507819 1 19 C-0.65 26.59 -2.3 34.18 -4 42 C-5.98 42.495 -5.98 42.495 -8 43 C-10.14710968 37.37661751 -12.13236819 31.72210596 -14 26 C-15.89213369 28.38573379 -17.02391783 30.07175348 -18 33 C-20.46816414 34.23408207 -22.24661201 34.20197579 -25 34.25 C-25.886875 34.27578125 -26.77375 34.3015625 -27.6875 34.328125 C-28.450625 34.21984375 -29.21375 34.1115625 -30 34 C-30.66 33.01 -31.32 32.02 -32 31 C-30 29 -30 29 -27.8359375 28.8046875 C-27.02382813 28.82789062 -26.21171875 28.85109375 -25.375 28.875 C-24.14910156 28.90207031 -24.14910156 28.90207031 -22.8984375 28.9296875 C-21.95871094 28.96449219 -21.95871094 28.96449219 -21 29 C-20.731875 28.154375 -20.46375 27.30875 -20.1875 26.4375 C-18.9521405 22.86145933 -17.523012 19.46139092 -16 16 C-14.68 16 -13.36 16 -12 16 C-9.525 23.425 -9.525 23.425 -7 31 C-4.69 20.77 -2.38 10.54 0 0 Z " fill="#CA2B26" transform="translate(73,2)"/>
<path d="M0 0 C2.1385485 2.1385485 2.42655063 3.13275314 3 6 C4.051875 5.79375 5.10375 5.5875 6.1875 5.375 C10.03968075 4.99609698 11.6366741 5.27028954 15 7 C15.66 7.33 16.32 7.66 17 8 C16.67 9.65 16.34 11.3 16 13 C13.525 12.505 13.525 12.505 11 12 C11 11.01 11 10.02 11 9 C9.35 9 7.7 9 6 9 C6 10.32 6 11.64 6 13 C4.68 12.67 3.36 12.34 2 12 C1.67 13.32 1.34 14.64 1 16 C-0.9375 15.6875 -0.9375 15.6875 -3 15 C-3.33 14.01 -3.66 13.02 -4 12 C-5.32 12 -6.64 12 -8 12 C-8.66 11.67 -9.32 11.34 -10 11 C-10 11.99 -10 12.98 -10 14 C-10.66 14 -11.32 14 -12 14 C-12 10.37 -12 6.74 -12 3 C-10.68 3.33 -9.36 3.66 -8 4 C-7.67 4.66 -7.34 5.32 -7 6 C-3.31197956 4.77065985 -2.27643027 3.06140622 0 0 Z " fill="#CE2A26" transform="translate(160,21)"/>
<path d="M0 0 C2.31 0 4.62 0 7 0 C7.66 1.98 8.32 3.96 9 6 C11.64 5.67 14.28 5.34 17 5 C17.33 5.99 17.66 6.98 18 8 C15.03 7.505 15.03 7.505 12 7 C12 8.32 12 9.64 12 11 C13.98 10.67 15.96 10.34 18 10 C18 10.99 18 11.98 18 13 C14.14993652 13.08953636 10.76352508 12.75270502 7 12 C6.67 12.33 6.34 12.66 6 13 C4.02 13 2.04 13 0 13 C0 8.71 0 4.42 0 0 Z M3 8 C3 8.66 3 9.32 3 10 C3.66 10 4.32 10 5 10 C5 9.34 5 8.68 5 8 C4.34 8 3.68 8 3 8 Z " fill="#DC251E" transform="translate(108,22)"/>
<path d="M0 0 C2.97 0 5.94 0 9 0 C11.26609984 4.53219967 10.92735976 6.17772925 10 11 C8.68 10.67 7.36 10.34 6 10 C6 8.02 6 6.04 6 4 C5.34 4 4.68 4 4 4 C4 6.31 4 8.62 4 11 C3.38125 10.835 2.7625 10.67 2.125 10.5 C0.03936614 9.92365356 0.03936614 9.92365356 -2 10 C-2.33 10.33 -2.66 10.66 -3 11 C-5.375 11.3125 -5.375 11.3125 -8 11 C-9.8125 9 -9.8125 9 -11 7 C-8.69 7 -6.38 7 -4 7 C-4 6.01 -4 5.02 -4 4 C-3.34 4 -2.68 4 -2 4 C-2 4.99 -2 5.98 -2 7 C-1.01 7 -0.02 7 1 7 C1.33 6.01 1.66 5.02 2 4 C1.67 3.67 1.34 3.34 1 3 C0.67 2.01 0.34 1.02 0 0 Z " fill="#C6302C" transform="translate(173,26)"/>
<path d="M0 0 C1.32 0 2.64 0 4 0 C5.8121781 11.32896246 7.44919886 22.52814175 8 34 C7.34 34 6.68 34 6 34 C5.67 34.99 5.34 35.98 5 37 C4.67 37 4.34 37 4 37 C3.01 29.08 2.02 21.16 1 13 C1.66 13 2.32 13 3 13 C3 10.36 3 7.72 3 5 C2.01 4.67 1.02 4.34 0 4 C0 2.68 0 1.36 0 0 Z " fill="#BE3232" transform="translate(73,2)"/>
<path d="M0 0 C3.96 0 7.92 0 12 0 C12.33 0.99 12.66 1.98 13 3 C10.83909114 5.16090886 5.7994153 4.72400131 3 5 C1.68 10.61 0.36 16.22 -1 22 C-1.33 22 -1.66 22 -2 22 C-2 19.69 -2 17.38 -2 15 C-2.66 15 -3.32 15 -4 15 C-3.71617054 13.24871182 -3.42260471 11.49899997 -3.125 9.75 C-2.96257812 8.77546875 -2.80015625 7.8009375 -2.6328125 6.796875 C-2 4 -2 4 0 0 Z " fill="#C9312C" transform="translate(87,31)"/>
<path d="M0 0 C0.33 0.99 0.66 1.98 1 3 C1.66 3 2.32 3 3 3 C2.55090939 4.48199902 2.09043436 5.96055236 1.625 7.4375 C1.36976562 8.26121094 1.11453125 9.08492187 0.8515625 9.93359375 C0 12 0 12 -2 13 C-3.66234811 13.14601706 -5.33150507 13.22089834 -7 13.25 C-7.886875 13.27578125 -8.77375 13.3015625 -9.6875 13.328125 C-10.450625 13.21984375 -11.21375 13.1115625 -12 13 C-12.66 12.01 -13.32 11.02 -14 10 C-12 8 -12 8 -9.8359375 7.8046875 C-8.61777344 7.83949219 -8.61777344 7.83949219 -7.375 7.875 C-6.14910156 7.90207031 -6.14910156 7.90207031 -4.8984375 7.9296875 C-3.95871094 7.96449219 -3.95871094 7.96449219 -3 8 C-2.690625 7.05125 -2.38125 6.1025 -2.0625 5.125 C-1 2 -1 2 0 0 Z " fill="#C3312B" transform="translate(55,23)"/>
<path d="M0 0 C0.969375 0.185625 1.93875 0.37125 2.9375 0.5625 C3.618125 0.706875 4.29875 0.85125 5 1 C4.67 2.98 4.34 4.96 4 7 C1.525 6.505 1.525 6.505 -1 6 C-1 5.01 -1 4.02 -1 3 C-2.65 3 -4.3 3 -6 3 C-6 4.32 -6 5.64 -6 7 C-7.32 6.67 -8.64 6.34 -10 6 C-10.33 6.99 -10.66 7.98 -11 9 C-12.32 7.02 -13.64 5.04 -15 3 C-14.34 2.67 -13.68 2.34 -13 2 C-12.34 2.33 -11.68 2.66 -11 3 C-11 2.34 -11 1.68 -11 1 C-7.20470362 -1.58080154 -4.36019696 -0.84144152 0 0 Z " fill="#D8211B" transform="translate(172,27)"/>
<path d="M0 0 C5.33333333 0 10.66666667 0 16 0 C15.11223998 3.69900008 14.05418136 7.34550461 13 11 C10.83125748 10.49396008 9.00032373 10.00016187 7 9 C7 6.66666667 7 4.33333333 7 2 C4.69 1.67 2.38 1.34 0 1 C0 0.67 0 0.34 0 0 Z " fill="#BE312F" transform="translate(197,26)"/>
<path d="M0 0 C0.99 0 1.98 0 3 0 C3.33 4.62 3.66 9.24 4 14 C3.34 14 2.68 14 2 14 C1.67 14.99 1.34 15.98 1 17 C0.67 17 0.34 17 0 17 C0 11.39 0 5.78 0 0 Z " fill="#D02A24" transform="translate(77,22)"/>
<path d="M0 0 C2.33294775 -0.04241723 4.66702567 -0.04092937 7 0 C8 1 8 1 8.0625 3.5625 C8.041875 4.366875 8.02125 5.17125 8 6 C7.67 5.34 7.34 4.68 7 4 C5.35 4 3.7 4 2 4 C1.67 5.32 1.34 6.64 1 8 C1.66 8 2.32 8 3 8 C2.34 9.65 1.68 11.3 1 13 C0.67 13 0.34 13 0 13 C0 8.71 0 4.42 0 0 Z " fill="#CE2927" transform="translate(108,22)"/>
<path d="M0 0 C2.31 0.33 4.62 0.66 7 1 C6.67 2.65 6.34 4.3 6 6 C3.525 5.01 3.525 5.01 1 4 C1 4.99 1 5.98 1 7 C0.34 7 -0.32 7 -1 7 C-0.67 4.69 -0.34 2.38 0 0 Z " fill="#DE2824" transform="translate(149,28)"/>
<path d="M0 0 C1.32 0.33 2.64 0.66 4 1 C4 3.97 4 6.94 4 10 C2.68 9.67 1.36 9.34 0 9 C0 6.03 0 3.06 0 0 Z " fill="#E1231C" transform="translate(73,6)"/>
<path d="M0 0 C3.96 0 7.92 0 12 0 C12.33 0.99 12.66 1.98 13 3 C12 4 12 4 9.93359375 4.09765625 C9.10988281 4.08605469 8.28617188 4.07445312 7.4375 4.0625 C6.61121094 4.05347656 5.78492187 4.04445313 4.93359375 4.03515625 C4.29550781 4.02355469 3.65742187 4.01195312 3 4 C3.66 3.34 4.32 2.68 5 2 C3.35 1.67 1.7 1.34 0 1 C0 0.67 0 0.34 0 0 Z " fill="#B93434" transform="translate(87,31)"/>
<path d="M0 0 C0.33 0 0.66 0 1 0 C1.33 4.95 1.66 9.9 2 15 C1.01 15.33 0.02 15.66 -1 16 C-1.02725341 14.2709226 -1.04650987 12.54171824 -1.0625 10.8125 C-1.07410156 9.84957031 -1.08570312 8.88664063 -1.09765625 7.89453125 C-1.00486622 5.14423487 -0.62111685 2.67520409 0 0 Z " fill="#C62821" transform="translate(72,6)"/>
<path d="M0 0 C1.21816406 0.03480469 1.21816406 0.03480469 2.4609375 0.0703125 C3.68683594 0.09738281 3.68683594 0.09738281 4.9375 0.125 C5.87722656 0.15980469 5.87722656 0.15980469 6.8359375 0.1953125 C6.8359375 0.5253125 6.8359375 0.8553125 6.8359375 1.1953125 C4.8559375 1.1953125 2.8759375 1.1953125 0.8359375 1.1953125 C0.8359375 1.8553125 0.8359375 2.5153125 0.8359375 3.1953125 C3.1459375 3.5253125 5.4559375 3.8553125 7.8359375 4.1953125 C7.8359375 4.5253125 7.8359375 4.8553125 7.8359375 5.1953125 C6.21175005 5.27622221 4.58642005 5.33446245 2.9609375 5.3828125 C2.05601563 5.41761719 1.15109375 5.45242187 0.21875 5.48828125 C-0.96074219 5.34326172 -0.96074219 5.34326172 -2.1640625 5.1953125 C-2.8240625 4.2053125 -3.4840625 3.2153125 -4.1640625 2.1953125 C-2.1640625 0.1953125 -2.1640625 0.1953125 0 0 Z " fill="#BA3638" transform="translate(45.1640625,30.8046875)"/>
<path d="M0 0 C0.33 0.99 0.66 1.98 1 3 C1.66 3.33 2.32 3.66 3 4 C-0.3 4 -3.6 4 -7 4 C-6.67 3.01 -6.34 2.02 -6 1 C-4.02 0.67 -2.04 0.34 0 0 Z " fill="#D82620" transform="translate(52,31)"/>
<path d="M0 0 C0.66 0 1.32 0 2 0 C2 2.64 2 5.28 2 8 C1.01 8.33 0.02 8.66 -1 9 C-1.625 5.625 -1.625 5.625 -2 2 C-1.34 1.34 -0.68 0.68 0 0 Z " fill="#DB281A" transform="translate(141,27)"/>
<path d="M0 0 C0.99 0 1.98 0 3 0 C3.66 2.31 4.32 4.62 5 7 C4.01 7.495 4.01 7.495 3 8 C0.52557871 5.84832931 -0.56238367 4.28212246 -1 1 C-0.67 0.67 -0.34 0.34 0 0 Z " fill="#E4221C" transform="translate(190,24)"/>
<path d="M0 0 C0.33 0 0.66 0 1 0 C1 1.65 1 3.3 1 5 C1.66 5 2.32 5 3 5 C2.67 7.97 2.34 10.94 2 14 C1.67 14 1.34 14 1 14 C1 11.69 1 9.38 1 7 C0.34 7 -0.32 7 -1 7 C-0.67 4.69 -0.34 2.38 0 0 Z " fill="#BB352A" transform="translate(84,39)"/>
<path d="M0 0 C3.5219721 -0.08004482 6.61981469 -0.04005702 10 1 C9.67 2.32 9.34 3.64 9 5 C7.68 4.67 6.36 4.34 5 4 C5 3.01 5 2.02 5 1 C3.02 1.33 1.04 1.66 -1 2 C-0.67 1.34 -0.34 0.68 0 0 Z " fill="#C22E26" transform="translate(120,26)"/>
<path d="M0 0 C0.66 0.66 1.32 1.32 2 2 C2.66 1.67 3.32 1.34 4 1 C4 2.65 4 4.3 4 6 C3.34 6 2.68 6 2 6 C1.67 6.99 1.34 7.98 1 9 C0.67 9 0.34 9 0 9 C0 6.03 0 3.06 0 0 Z " fill="#BB3833" transform="translate(77,30)"/>
<path d="M0 0 C0.99 0 1.98 0 3 0 C3.625 1.8125 3.625 1.8125 4 4 C3.01 5.485 3.01 5.485 2 7 C1.34 7 0.68 7 0 7 C0 4.69 0 2.38 0 0 Z " fill="#DF231E" transform="translate(207,27)"/>
<path d="M0 0 C1.32 0 2.64 0 4 0 C4 2.31 4 4.62 4 7 C3.67 6.34 3.34 5.68 3 5 C2.01 5 1.02 5 0 5 C0 3.35 0 1.7 0 0 Z " fill="#E42B23" transform="translate(81,46)"/>
<path d="M0 0 C1.32 0.33 2.64 0.66 4 1 C4 1.99 4 2.98 4 4 C4.66 4.33 5.32 4.66 6 5 C5.01 6.485 5.01 6.485 4 8 C3.34 8 2.68 8 2 8 C2 6.02 2 4.04 2 2 C1.34 2 0.68 2 0 2 C0 1.34 0 0.68 0 0 Z " fill="#DF221C" transform="translate(200,27)"/>
<path d="M0 0 C0.66 0 1.32 0 2 0 C1.67 1.98 1.34 3.96 1 6 C-0.32 6 -1.64 6 -3 6 C-3 5.34 -3 4.68 -3 4 C-2.01 4 -1.02 4 0 4 C0 2.68 0 1.36 0 0 Z " fill="#BE3029" transform="translate(83,53)"/>
<path d="M0 0 C0.66 0.33 1.32 0.66 2 1 C2 2.98 2 4.96 2 7 C1.01 7 0.02 7 -1 7 C-0.67 4.69 -0.34 2.38 0 0 Z " fill="#D32A23" transform="translate(86,37)"/>
<path d="M0 0 C0.33 0.99 0.66 1.98 1 3 C1.66 3.33 2.32 3.66 3 4 C1.02 4.33 -0.96 4.66 -3 5 C-3.33 4.34 -3.66 3.68 -4 3 C-3.34 3 -2.68 3 -2 3 C-2 2.34 -2 1.68 -2 1 C-1.34 0.67 -0.68 0.34 0 0 Z " fill="#BD2B27" transform="translate(201,32)"/>
<path d="M0 0 C0 1.98 0 3.96 0 6 C-1.32 5.67 -2.64 5.34 -4 5 C-4 3.68 -4 2.36 -4 1 C-1 0 -1 0 0 0 Z " fill="#C53734" transform="translate(161,31)"/>
<path d="M0 0 C1.32 0.33 2.64 0.66 4 1 C4 2.32 4 3.64 4 5 C2.68 4.67 1.36 4.34 0 4 C0 2.68 0 1.36 0 0 Z " fill="#DD2621" transform="translate(162,29)"/>
<path d="M0 0 C4.75 0.75 4.75 0.75 7 3 C4.69 3.33 2.38 3.66 0 4 C0 2.68 0 1.36 0 0 Z " fill="#EB322C" transform="translate(120,29)"/>
</svg>
