<?xml version="1.0" encoding="UTF-8"?>
<svg version="1.1" xmlns="http://www.w3.org/2000/svg" width="512" height="256">
<path d="M0 0 C2 0.125 2 0.125 4 1 C5.70732733 3.80774017 6.35402395 6.30571274 6.77200317 9.54315186 C6.89255066 10.448965 7.01309814 11.35477814 7.13729858 12.28804016 C7.26101837 13.27418808 7.38473816 14.260336 7.51220703 15.27636719 C7.64904907 16.32058334 7.78589111 17.3647995 7.92687988 18.44065857 C8.37741228 21.89187478 8.81764546 25.34432279 9.2578125 28.796875 C9.56820465 31.19020667 9.87923802 33.58345526 10.19088745 35.97662354 C11.0094056 42.2755305 11.81919774 48.57552975 12.62719727 54.87579346 C13.4532438 61.3045948 14.28751108 67.73232852 15.12109375 74.16015625 C16.75545774 86.77240376 18.38088756 99.38578596 20 112 C20.48152182 110.57462596 20.96137578 109.14868841 21.4405365 107.72251892 C21.70793609 106.9285115 21.97533567 106.13450407 22.25083828 105.31643581 C23.2376416 102.26520335 24.01187594 99.18555222 24.75390625 96.06640625 C25.05103516 94.84115234 25.34816406 93.61589844 25.65429688 92.35351562 C26.26617305 89.79942603 26.87549678 87.24472376 27.48242188 84.68945312 C27.92618164 82.86510742 27.92618164 82.86510742 28.37890625 81.00390625 C28.6426001 79.89861572 28.90629395 78.7933252 29.17797852 77.65454102 C30 75 30 75 32 73 C34.67382812 72.74121094 34.67382812 72.74121094 38.03125 72.734375 C39.23394531 72.73179687 40.43664062 72.72921875 41.67578125 72.7265625 C42.93777344 72.73429687 44.19976562 72.74203125 45.5 72.75 C46.76199219 72.74226563 48.02398437 72.73453125 49.32421875 72.7265625 C50.52691406 72.72914063 51.72960937 72.73171875 52.96875 72.734375 C54.07669922 72.73663086 55.18464844 72.73888672 56.32617188 72.74121094 C59 73 59 73 61 75 C60.625 77.625 60.625 77.625 60 80 C56.95157135 80.90901939 54.40338364 81.06173367 51.234375 80.87890625 C49.90019531 80.80639648 49.90019531 80.80639648 48.5390625 80.73242188 C47.61867188 80.67634766 46.69828125 80.62027344 45.75 80.5625 C44.81414062 80.51029297 43.87828125 80.45808594 42.9140625 80.40429688 C40.60900635 80.27493148 38.30449254 80.1389448 36 80 C35.88458359 80.66354492 35.76916718 81.32708984 35.6502533 82.01074219 C34.4454161 88.80255575 33.04755529 95.52769261 31.50390625 102.25 C31.15258888 103.780802 31.15258888 103.780802 30.79417419 105.3425293 C30.30243689 107.47725362 29.80909788 109.61160957 29.31420898 111.74560547 C28.81001833 113.92841204 28.31072523 116.11235525 27.81616211 118.29736328 C27.09763103 121.47160648 26.3649604 124.64228042 25.62890625 127.8125 C25.41005264 128.79057617 25.19119904 129.76865234 24.9657135 130.77636719 C24.75216721 131.68161133 24.53862091 132.58685547 24.31860352 133.51953125 C24.13588394 134.31464111 23.95316437 135.10975098 23.76490784 135.92895508 C22.89340714 138.28860811 21.97957265 139.46227416 20 141 C17.86254078 140.74853421 16.54074221 140.54074221 15 139 C14.73819071 137.6161534 14.53432957 136.22126939 14.35498047 134.82434082 C14.23725281 133.92409683 14.11952515 133.02385284 13.99822998 132.09632874 C13.80961395 130.60328468 13.80961395 130.60328468 13.6171875 129.08007812 C13.48209778 128.03790634 13.34700806 126.99573456 13.20782471 125.92198181 C12.91402807 123.65118822 12.6222065 121.38013845 12.33209229 119.10887146 C11.87364754 115.52066441 11.40995847 111.9331708 10.94482422 108.3458252 C9.79059928 99.43516213 8.64560611 90.52331703 7.50024414 81.61151123 C6.53282289 74.08697888 5.56198049 66.56290367 4.58648682 59.03941345 C4.12824726 55.49387505 3.67513431 51.94770464 3.22216797 48.40148926 C2.94263407 46.24093427 2.66286206 44.08041008 2.3828125 41.91992188 C2.19419647 40.42687782 2.19419647 40.42687782 2.00177002 38.90367126 C1.88404236 38.00342728 1.7663147 37.10318329 1.64501953 36.17565918 C1.54399933 35.388825 1.44297913 34.60199081 1.33889771 33.79131317 C1.17103797 31.98325912 1.17103797 31.98325912 0 31 C-1.16870532 36.57535673 -2.33685891 42.15082873 -3.50463867 47.72637939 C-4.1231827 50.67882562 -4.74225181 53.63116144 -5.36132812 56.58349609 C-7.22515126 65.47778996 -9.08391497 74.37284519 -10.8984375 83.27734375 C-11.10824753 84.3041349 -11.10824753 84.3041349 -11.32229614 85.35166931 C-11.96427364 88.49358187 -12.6027619 91.63611241 -13.23486328 94.7800293 C-13.4564209 95.86582275 -13.67797852 96.95161621 -13.90625 98.0703125 C-14.09509766 99.00633301 -14.28394531 99.94235352 -14.47851562 100.90673828 C-15 103 -15 103 -16 104 C-17.66617115 104.04063832 -19.33388095 104.042721 -21 104 C-23.84730273 97.90277047 -26.1942604 91.78043952 -28.234375 85.37109375 C-28.51726379 84.49598648 -28.80015259 83.62087921 -29.09161377 82.71925354 C-29.98237339 79.96013563 -30.86629868 77.19888563 -31.75 74.4375 C-32.35761975 72.55128625 -32.96568861 70.66521711 -33.57421875 68.77929688 C-35.05467045 64.18785146 -36.52900271 59.59448269 -38 55 C-38.51949219 56.03898437 -39.03898437 57.07796875 -39.57421875 58.1484375 C-43.3828125 65.765625 -47.19140625 73.3828125 -51 81 C-55.45827926 81.0578304 -59.9164628 81.09353855 -64.375 81.125 C-65.64601563 81.14175781 -66.91703125 81.15851563 -68.2265625 81.17578125 C-69.43828125 81.18222656 -70.65 81.18867188 -71.8984375 81.1953125 C-73.01911621 81.20578613 -74.13979492 81.21625977 -75.29443359 81.22705078 C-78 81 -78 81 -80 79 C-79.46428571 75.46428571 -79.46428571 75.46428571 -78 74 C-76.29227642 73.91286169 -74.58101351 73.89299993 -72.87109375 73.90234375 C-71.31938477 73.90717773 -71.31938477 73.90717773 -69.73632812 73.91210938 C-68.64771484 73.92048828 -67.55910156 73.92886719 -66.4375 73.9375 C-64.7987793 73.94426758 -64.7987793 73.94426758 -63.12695312 73.95117188 C-60.41791505 73.96300174 -57.70898401 73.97948457 -55 74 C-54.72671875 73.14245117 -54.4534375 72.28490234 -54.171875 71.40136719 C-52.37024557 66.17213777 -50.08056947 61.17146852 -47.83203125 56.12158203 C-46.99714371 54.24357502 -46.17026926 52.36217108 -45.34375 50.48046875 C-44.8178125 49.29582031 -44.291875 48.11117187 -43.75 46.890625 C-43.03070313 45.26688965 -43.03070313 45.26688965 -42.296875 43.61035156 C-41 41 -41 41 -39 39 C-36.99316406 39.12744141 -36.99316406 39.12744141 -35 40 C-33.93652344 41.66552734 -33.93652344 41.66552734 -33.109375 43.9609375 C-32.78001953 44.86553711 -32.45066406 45.77013672 -32.11132812 46.70214844 C-29.76701827 53.65885705 -27.48300084 60.63175994 -25.25 67.625 C-24.7386062 69.2175523 -24.22688991 70.81000108 -23.71484375 72.40234375 C-22.47224866 76.26685471 -21.2358212 80.1333184 -20 84 C-17.33160737 74.41107319 -15.01656483 64.82337293 -13.04546738 55.06705284 C-12.60403762 52.88419289 -12.1563222 50.70269964 -11.70706177 48.5214386 C-10.43361565 42.33351152 -9.17065282 36.14346578 -7.91259766 29.95239258 C-7.13628612 26.13422557 -6.35266878 22.31761716 -5.56454849 18.50187111 C-5.26742621 17.05554689 -4.97320078 15.60862441 -4.68194199 14.16110802 C-4.27770304 12.15240293 -3.86428171 10.14579478 -3.44873047 8.1394043 C-3.10042679 6.42855904 -3.10042679 6.42855904 -2.74508667 4.68315125 C-2 2 -2 2 0 0 Z " fill="#D51E19" transform="translate(126,70)"/>
<path d="M0 0 C3.99929604 1.33309868 4.98348255 3.35658633 7.4375 6.75 C10.21717807 10.56911775 13.01993947 14.33432191 16 18 C20.91895531 12.66566624 25.66816279 7.3672639 29.80859375 1.3984375 C30.20175781 0.93695313 30.59492188 0.47546875 31 0 C31.66 0 32.32 0 33 0 C33 11.88 33 23.76 33 36 C30.36 36 27.72 36 25 36 C24.67 31.38 24.34 26.76 24 22 C21.69 24.97 19.38 27.94 17 31 C13.69833218 27.79004518 10.8980567 24.62257087 8 21 C7.67 25.95 7.34 30.9 7 36 C4.69 36 2.38 36 0 36 C0 24.12 0 12.24 0 0 Z " fill="#D31D18" transform="translate(305,118)"/>
<path d="M0 0 C2.56364483 -0.10845031 5.12266279 -0.18749744 7.6875 -0.25 C8.40873047 -0.28351563 9.12996094 -0.31703125 9.87304688 -0.3515625 C13.73841757 -0.42216288 15.58235815 -0.25785803 18.9609375 1.828125 C21.54159129 4.57686735 21.92205473 6.25862725 22 10 C21.0625 12.375 21.0625 12.375 20 14 C20.66 14 21.32 14 22 14 C24.66657012 18.26651219 25.49142805 21.23813878 24.64453125 26.10546875 C23.35302981 29.90170025 20.53601852 31.99809701 17.28125 34.12109375 C14.0747194 35.35648653 11.23553858 35.22651909 7.8125 35.1875 C6.56082031 35.18105469 5.30914062 35.17460937 4.01953125 35.16796875 C1 35 1 35 0 34 C-0.08847743 31.47905924 -0.11527301 28.98569107 -0.09765625 26.46484375 C-0.0962413 25.71159317 -0.09482635 24.95834259 -0.09336853 24.18226624 C-0.08775376 21.7673044 -0.07519883 19.35243399 -0.0625 16.9375 C-0.0574869 15.30403779 -0.05292366 13.67057414 -0.04882812 12.03710938 C-0.03777954 8.02470415 -0.02050506 4.01236759 0 0 Z M8 6 C8 7.65 8 9.3 8 11 C9.65 11 11.3 11 13 11 C13.59070014 9.05396726 13.59070014 9.05396726 14 7 C12.93354885 5.70366379 12.93354885 5.70366379 10.4375 5.9375 C9.633125 5.958125 8.82875 5.97875 8 6 Z M8 17 C8 20.3 8 23.6 8 27 C12.34184202 26.81535634 12.34184202 26.81535634 16 25 C15.71269945 22.66055264 15.38063221 20.3260857 15 18 C12.69 17.67 10.38 17.34 8 17 Z " fill="#E91812" transform="translate(206,119)"/>
<path d="M0 0 C1.98 0 3.96 0 6 0 C6 7.92 6 15.84 6 24 C3 24 0 24 -3 24 C-4.27875 24.061875 -5.5575 24.12375 -6.875 24.1875 C-10.73351059 24.16626049 -12.9904378 23.57962474 -16 21 C-18.88402967 16.62423085 -19.64987517 13.19900136 -19 8 C-17.08674902 4.02043796 -15.54949286 2.32758228 -11.75 0.0625 C-7.15329501 -1.23989975 -4.68150777 -0.81740612 0 0 Z M-9.8125 7.0625 C-11.67811985 10.10640607 -10.69878609 12.63312157 -10 16 C-7.14221967 16.68493373 -7.14221967 16.68493373 -4 17 C-3.01 16.34 -2.02 15.68 -1 15 C-0.592026 11.80420369 -0.43318281 9.85022579 -2.25 7.125 C-4.90225192 5.41998091 -7.10935151 5.47789571 -9.8125 7.0625 Z " fill="#D1211B" transform="translate(277,130)"/>
<path d="M0 0 C2.17079302 1.76376933 3.92725469 3.36232187 5.1875 5.8828125 C5.1875 8.1928125 5.1875 10.5028125 5.1875 12.8828125 C-2.7325 13.3778125 -2.7325 13.3778125 -10.8125 13.8828125 C-9.59880279 15.32831685 -9.59880279 15.32831685 -6 14.9453125 C-4.60413158 14.92698027 -3.20829423 14.9061189 -1.8125 14.8828125 C-0.4925 14.8828125 0.8275 14.8828125 2.1875 14.8828125 C2.5175 16.8628125 2.8475 18.8428125 3.1875 20.8828125 C-2.07935542 23.15048636 -6.41645732 24.67038284 -12.015625 22.7890625 C-15.30931674 21.12789623 -17.37957924 19.22409318 -18.8125 15.8828125 C-19.66881299 10.71462257 -19.67766594 6.45292847 -17.125 1.8203125 C-12.01173152 -2.46377731 -5.91006758 -3.64284338 0 0 Z M-11.8125 5.8828125 C-11.8125 6.2128125 -11.8125 6.5428125 -11.8125 6.8828125 C-8.8425 6.8828125 -5.8725 6.8828125 -2.8125 6.8828125 C-3.61434414 4.73289683 -3.61434414 4.73289683 -5.625 4.1328125 C-8.31078639 3.82586548 -9.5377187 4.50169528 -11.8125 5.8828125 Z " fill="#C9221F" transform="translate(251.8125,131.1171875)"/>
<path d="M0 0 C3.40654184 2.14760246 5.77828524 4.11272577 7 8 C7.45599783 13.01597611 7.12987123 16.00671602 4 20 C1.72260535 22.55344249 0.05671938 23.80915436 -3.3359375 24.421875 C-7.5242919 24.64827254 -11.0004583 24.53883418 -14.5 22.0625 C-17.653161 18.19987778 -18.87670663 14.98457483 -19 10 C-17.47172799 5.23538728 -15.11175531 2.77543483 -11 0 C-7.14670271 -1.28443243 -3.87578783 -0.98408675 0 0 Z M-9.8125 7.0625 C-11.67811985 10.10640607 -10.69878609 12.63312157 -10 16 C-6.59679066 16.67673447 -6.59679066 16.67673447 -3 17 C-0.6278031 15.05541686 -0.6278031 15.05541686 -0.6875 11.5 C-0.790625 10.345 -0.89375 9.19 -1 8 C-4.22565259 5.84956494 -6.2654696 4.98320632 -9.8125 7.0625 Z " fill="#CC211F" transform="translate(360,130)"/>
<path d="M0 0 C2.96260319 1.81189251 5.42159878 3.84319756 7 7 C7.58118751 11.76383201 7.45088085 15.14488114 5.1875 19.4375 C2.90216572 22.11460588 1.28916543 23.80917689 -2.26953125 24.3359375 C-8.02248951 24.42430859 -11.53444236 24.01900188 -16 20 C-18.37965342 16.97135019 -18.35961865 13.75248888 -18.25390625 9.9609375 C-17.74916157 6.06275554 -15.88232313 3.77203274 -13 1.25 C-8.71909418 -1.42556614 -4.74278811 -1.33334987 0 0 Z M-9.875 7.6875 C-11.30124388 10.61922354 -11.04230389 11.95326554 -10 15 C-8.17528109 17.21896136 -8.17528109 17.21896136 -5.5625 17.375 C-2.90483483 17.22786947 -2.90483483 17.22786947 -1.125 15.3125 C0.30124388 12.38077646 0.04230389 11.04673446 -1 8 C-2.82471891 5.78103864 -2.82471891 5.78103864 -5.4375 5.625 C-8.09516517 5.77213053 -8.09516517 5.77213053 -9.875 7.6875 Z " fill="#CC221E" transform="translate(440,130)"/>
<path d="M0 0 C2.4741539 2.17637963 3.83795179 3.87729998 4.31616211 7.19042969 C4.39360414 9.74271591 4.34893685 12.26107082 4.25 14.8125 C4.23195313 15.69615234 4.21390625 16.57980469 4.1953125 17.49023438 C4.14838513 19.66062543 4.07664731 21.83045519 4 24 C1.69 24 -0.62 24 -3 24 C-3.06058594 22.94039062 -3.12117188 21.88078125 -3.18359375 20.7890625 C-3.26800127 19.40102779 -3.35264917 18.01300768 -3.4375 16.625 C-3.47681641 15.92632812 -3.51613281 15.22765625 -3.55664062 14.5078125 C-3.74280134 10.62639508 -3.74280134 10.62639508 -5 7 C-6.32 7 -7.64 7 -9 7 C-10.15570704 10.46712111 -10.32835293 13.5414956 -10.5625 17.1875 C-10.64628906 18.45980469 -10.73007812 19.73210937 -10.81640625 21.04296875 C-10.87699219 22.01878906 -10.93757813 22.99460938 -11 24 C-13.64 24 -16.28 24 -19 24 C-19 16.08 -19 8.16 -19 0 C-16.03 0 -13.06 0 -10 0 C-6.16652698 -1.27782434 -3.91272241 -0.96101954 0 0 Z " fill="#CB211C" transform="translate(388,130)"/>
<path d="M0 0 C0.33 0 0.66 0 1 0 C1.33 3.96 1.66 7.92 2 12 C2.66 12 3.32 12 4 12 C4 13.32 4 14.64 4 16 C4.66 16 5.32 16 6 16 C6.66 13.69 7.32 11.38 8 9 C8.99 9.33 9.98 9.66 11 10 C10.72369941 20.63757264 9.4109816 29.84638035 6 40 C3.625 40.625 3.625 40.625 1 41 C-1.51433077 38.48566923 -1.35980148 37.36293466 -1.6328125 33.87109375 C-1.71660156 32.83533203 -1.80039063 31.79957031 -1.88671875 30.73242188 C-1.96535156 29.64509766 -2.04398438 28.55777344 -2.125 27.4375 C-2.25455078 25.84711914 -2.25455078 25.84711914 -2.38671875 24.22460938 C-2.86043052 18.13026988 -3.08978636 12.11188548 -3 6 C-2.01 6 -1.02 6 0 6 C0 4.02 0 2.04 0 0 Z " fill="#DB1C16" transform="translate(142,170)"/>
<path d="M0 0 C2.56364483 -0.10845031 5.12266279 -0.18749744 7.6875 -0.25 C8.40873047 -0.28351563 9.12996094 -0.31703125 9.87304688 -0.3515625 C13.88194518 -0.42478439 15.57169678 -0.28590487 19.01953125 2.015625 C19.67308594 2.67046875 20.32664063 3.3253125 21 4 C20.67 4.66 20.34 5.32 20 6 C17.525 5.505 17.525 5.505 15 5 C15 5.66 15 6.32 15 7 C15.66 7 16.32 7 17 7 C16.125 10.875 16.125 10.875 15 12 C11.5 12.125 11.5 12.125 8 12 C7 11 7 11 6.9375 7.4375 C6.958125 6.303125 6.97875 5.16875 7 4 C8.65 4 10.3 4 12 4 C12 3.34 12 2.68 12 2 C8.37 2 4.74 2 1 2 C1.33 12.23 1.66 22.46 2 33 C5.96 33.33 9.92 33.66 14 34 C14 33.01 14 32.02 14 31 C12.68 30.67 11.36 30.34 10 30 C10.66 30 11.32 30 12 30 C12 29.34 12 28.68 12 28 C10.35 27.67 8.7 27.34 7 27 C7 24.36 7 21.72 7 19 C6.01 19.33 5.02 19.66 4 20 C4.33 18.35 4.66 16.7 5 15 C8.63 15.33 12.26 15.66 16 16 C16.33 18.31 16.66 20.62 17 23 C18.98 23 20.96 23 23 23 C21.73025028 18.58477891 21.73025028 18.58477891 19 15 C18.375 12.375 18.375 12.375 18 10 C18.99 9.67 19.98 9.34 21 9 C21.33 8.34 21.66 7.68 22 7 C21.125 11.75 21.125 11.75 20 14 C20.66 14 21.32 14 22 14 C24.66657012 18.26651219 25.49142805 21.23813878 24.64453125 26.10546875 C23.35302981 29.90170025 20.53601852 31.99809701 17.28125 34.12109375 C14.0747194 35.35648653 11.23553858 35.22651909 7.8125 35.1875 C6.56082031 35.18105469 5.30914062 35.17460937 4.01953125 35.16796875 C1 35 1 35 0 34 C-0.08847743 31.47905924 -0.11527301 28.98569107 -0.09765625 26.46484375 C-0.0962413 25.71159317 -0.09482635 24.95834259 -0.09336853 24.18226624 C-0.08775376 21.7673044 -0.07519883 19.35243399 -0.0625 16.9375 C-0.0574869 15.30403779 -0.05292366 13.67057414 -0.04882812 12.03710938 C-0.03777954 8.02470415 -0.02050506 4.01236759 0 0 Z M8 6 C8 7.65 8 9.3 8 11 C9.65 11 11.3 11 13 11 C13.59070014 9.05396726 13.59070014 9.05396726 14 7 C12.93354885 5.70366379 12.93354885 5.70366379 10.4375 5.9375 C9.633125 5.958125 8.82875 5.97875 8 6 Z M8 17 C8 20.3 8 23.6 8 27 C12.34184202 26.81535634 12.34184202 26.81535634 16 25 C15.71269945 22.66055264 15.38063221 20.3260857 15 18 C12.69 17.67 10.38 17.34 8 17 Z " fill="#AF2422" transform="translate(206,119)"/>
<path d="M0 0 C0 2.31 0 4.62 0 7 C1.65 7 3.3 7 5 7 C5.625 8.875 5.625 8.875 6 11 C5.34 11.66 4.68 12.32 4 13 C2.68 13 1.36 13 0 13 C0 18.94 0 24.88 0 31 C-2.64 31 -5.28 31 -8 31 C-8 25.06 -8 19.12 -8 13 C-9.65 13 -11.3 13 -13 13 C-13 11.02 -13 9.04 -13 7 C-11.35 7 -9.7 7 -8 7 C-8 4.69 -8 2.38 -8 0 C-5.13822943 -1.43088528 -3.06624227 -0.59991697 0 0 Z " fill="#DA1B17" transform="translate(418,123)"/>
<path d="M0 0 C0 2.31 0 4.62 0 7 C1.65 7 3.3 7 5 7 C5.33 8.98 5.66 10.96 6 13 C4.02 13 2.04 13 0 13 C0 18.94 0 24.88 0 31 C-2.64 31 -5.28 31 -8 31 C-8 25.06 -8 19.12 -8 13 C-9.32 13 -10.64 13 -12 13 C-12 11.02 -12 9.04 -12 7 C-10.68 7 -9.36 7 -8 7 C-8 4.69 -8 2.38 -8 0 C-5.13822943 -1.43088528 -3.06624227 -0.59991697 0 0 Z " fill="#CB1F1B" transform="translate(297,123)"/>
<path d="M0 0 C10.375 0 10.375 0 15 1 C15.33 2.65 15.66 4.3 16 6 C12.535 7.485 12.535 7.485 9 9 C8.67 13.95 8.34 18.9 8 24 C5.36 24 2.72 24 0 24 C0 16.08 0 8.16 0 0 Z " fill="#C6211C" transform="translate(450,130)"/>
<path d="M0 0 C0 7.26 0 14.52 0 22 C-2.64 21.34 -5.28 20.68 -8 20 C-8 20.66 -8 21.32 -8 22 C-9.98 22 -11.96 22 -14 22 C-14 21.34 -14 20.68 -14 20 C-14.78375 19.938125 -15.5675 19.87625 -16.375 19.8125 C-19 19 -19 19 -20.25 16.75 C-20.95215139 14.17544491 -21.54914385 11.62999422 -22 9 C-20.02 8.01 -18.04 7.02 -16 6 C-15.67 9.3 -15.34 12.6 -15 16 C-13.081875 16.0309375 -13.081875 16.0309375 -11.125 16.0625 C-10.40570313 16.07410156 -9.68640625 16.08570313 -8.9453125 16.09765625 C-6.91814596 16.12649242 -6.91814596 16.12649242 -5 15 C-5.17249973 8.76312464 -5.17249973 8.76312464 -8.0625 3.4375 C-8.701875 2.963125 -9.34125 2.48875 -10 2 C-8.7090864 1.66376204 -7.41723903 1.33110751 -6.125 1 C-5.40570313 0.814375 -4.68640625 0.62875 -3.9453125 0.4375 C-2 0 -2 0 0 0 Z " fill="#E81911" transform="translate(281,131)"/>
<path d="M0 0 C0.33 0 0.66 0 1 0 C1.33 2.64 1.66 5.28 2 8 C2.99 8.33 3.98 8.66 5 9 C4.27293095 17.31067537 2.61046563 25.40209186 0.9375 33.5625 C0.65263437 34.96672381 0.36812634 36.37102021 0.08398438 37.77539062 C-0.60655781 41.18444025 -1.30192898 44.59248307 -2 48 C-2.33 48 -2.66 48 -3 48 C-3.02687279 46.18757948 -3.04633715 44.37504767 -3.0625 42.5625 C-3.07410156 41.55316406 -3.08570312 40.54382813 -3.09765625 39.50390625 C-3 37 -3 37 -2 36 C-2 35.01 -2 34.02 -2 33 C-2.639375 33.66 -3.27875 34.32 -3.9375 35 C-6 37 -6 37 -7 37 C-6.31137469 28.9892828 -4.66689417 21.28196777 -2.9375 13.4375 C-2.652578 12.12964802 -2.36806969 10.82170585 -2.08398438 9.51367188 C-1.39337262 6.3415399 -0.69861189 3.1703779 0 0 Z " fill="#D41F1A" transform="translate(116,111)"/>
<path d="M0 0 C0.93400635 0.00410889 1.8680127 0.00821777 2.83032227 0.01245117 C4.35689453 0.01535156 4.35689453 0.01535156 5.91430664 0.01831055 C6.98100586 0.03055664 8.04770508 0.04280273 9.14672852 0.05541992 C10.20956055 0.05606445 11.27239258 0.05670898 12.36743164 0.05737305 C20.28785122 0.10246082 20.28785122 0.10246082 23.70922852 1.24291992 C23.70922852 2.56291992 23.70922852 3.88291992 23.70922852 5.24291992 C16.11922852 5.24291992 8.52922852 5.24291992 0.70922852 5.24291992 C0.37922852 7.88291992 0.04922852 10.52291992 -0.29077148 13.24291992 C-0.59246214 14.58376728 -0.90594829 15.92352612 -1.29077148 17.24291992 C-1.95077148 17.24291992 -2.61077148 17.24291992 -3.29077148 17.24291992 C-3.29077148 18.23291992 -3.29077148 19.22291992 -3.29077148 20.24291992 C-4.94077148 20.57291992 -6.59077148 20.90291992 -8.29077148 21.24291992 C-7.98294652 19.5962058 -7.66937914 17.95056416 -7.35327148 16.30541992 C-7.17924805 15.38889648 -7.00522461 14.47237305 -6.82592773 13.52807617 C-6.29077148 11.24291992 -6.29077148 11.24291992 -5.29077148 10.24291992 C-5.06543838 8.21492202 -4.84309963 6.18617118 -4.66967773 4.15307617 C-4.07839406 1.17227495 -2.97743744 0.31573593 0 0 Z " fill="#E81A14" transform="translate(161.290771484375,143.757080078125)"/>
<path d="M0 0 C0.66 0 1.32 0 2 0 C2.28875 0.763125 2.5775 1.52625 2.875 2.3125 C3.96269013 5.15029308 3.96269013 5.15029308 6 8 C6.125 10.6875 6.125 10.6875 6 13 C6.66 13 7.32 13 8 13 C8.20681396 13.62567871 8.41362793 14.25135742 8.62670898 14.89599609 C9.56207682 17.72285054 10.49975921 20.54893188 11.4375 23.375 C11.76298828 24.35984375 12.08847656 25.3446875 12.42382812 26.359375 C12.73642578 27.30039063 13.04902344 28.24140625 13.37109375 29.2109375 C13.65911865 30.08024902 13.94714355 30.94956055 14.24389648 31.84521484 C14.95318582 34.01123922 14.95318582 34.01123922 16 36 C16.13415472 38.6723621 16.04318541 41.32250488 16 44 C14.66666667 44 13.33333333 44 12 44 C11.34 40.04 10.68 36.08 10 32 C9.34 32 8.68 32 8 32 C8 30.02 8 28.04 8 26 C7.34 26 6.68 26 6 26 C5.80664062 25.13117188 5.61328125 24.26234375 5.4140625 23.3671875 C5.15367188 22.21476562 4.89328125 21.06234375 4.625 19.875 C4.36976562 18.73804688 4.11453125 17.60109375 3.8515625 16.4296875 C3.05130625 13.01526207 3.05130625 13.01526207 1.9375 9.8125 C0.85379397 6.5613819 0.40752326 3.39602717 0 0 Z " fill="#E61A13" transform="translate(87,111)"/>
<path d="M0 0 C2.31 0 4.62 0 7 0 C7.79967527 2.81990753 8.12822838 5.32986872 8.1328125 8.2578125 C8.13474609 9.44310547 8.13474609 9.44310547 8.13671875 10.65234375 C8.13285156 11.46832031 8.12898438 12.28429687 8.125 13.125 C8.12886719 13.94871094 8.13273437 14.77242187 8.13671875 15.62109375 C8.12669335 21.7466133 8.12669335 21.7466133 7 24 C4.69 24 2.38 24 0 24 C0 16.08 0 8.16 0 0 Z " fill="#D61E19" transform="translate(396,130)"/>
<path d="M0 0 C1 3 1 3 0.0625 5.1875 C-0.288125 5.785625 -0.63875 6.38375 -1 7 C-0.34 7 0.32 7 1 7 C3.19927162 10.5188346 4.28287602 13.13552041 3.9375 17.25 C3 21 3 21 1.0625 22.5625 C-1 23 -1 23 -3 22 C-3 22.99 -3 23.98 -3 25 C-5.64 24.67 -8.28 24.34 -11 24 C-10.34 23.67 -9.68 23.34 -9 23 C-9 22.34 -9 21.68 -9 21 C-10.65 20.67 -12.3 20.34 -14 20 C-14 17.36 -14 14.72 -14 12 C-14.99 12.33 -15.98 12.66 -17 13 C-16.67 11.35 -16.34 9.7 -16 8 C-12.37 8.33 -8.74 8.66 -5 9 C-4.67 11.31 -4.34 13.62 -4 16 C-2.02 16 -0.04 16 2 16 C0.73025028 11.58477891 0.73025028 11.58477891 -2 8 C-2.625 5.375 -2.625 5.375 -3 3 C-2.01 2.67 -1.02 2.34 0 2 C0 1.34 0 0.68 0 0 Z M-13 10 C-13 13.3 -13 16.6 -13 20 C-8.65815798 19.81535634 -8.65815798 19.81535634 -5 18 C-5.28730055 15.66055264 -5.61936779 13.3260857 -6 11 C-8.31 10.67 -10.62 10.34 -13 10 Z " fill="#E21A13" transform="translate(227,126)"/>
<path d="M0 0 C-0.33 0.66 -0.66 1.32 -1 2 C0.32 2.33 1.64 2.66 3 3 C3 3.99 3 4.98 3 6 C-2.94 5.01 -2.94 5.01 -9 4 C-9 4.66 -9 5.32 -9 6 C-9.66 6 -10.32 6 -11 6 C-10.67 9.3 -10.34 12.6 -10 16 C-9.34 16 -8.68 16 -8 16 C-8 16.66 -8 17.32 -8 18 C-6.35 18 -4.7 18 -3 18 C-2.67 18.66 -2.34 19.32 -2 20 C-3.62463842 20.05395478 -5.24978541 20.09277195 -6.875 20.125 C-8.23238281 20.15980469 -8.23238281 20.15980469 -9.6171875 20.1953125 C-12 20 -12 20 -14 18 C-14 17.01 -14 16.02 -14 15 C-14.66 15 -15.32 15 -16 15 C-16.29321709 10.01530948 -16.18338925 6.95179356 -13 3 C-8.75003492 -0.52139964 -5.28127753 -0.26853954 0 0 Z " fill="#E91A12" transform="translate(439,131)"/>
<path d="M0 0 C2.23413013 3.35119519 2.23847762 4.4177755 2.1953125 8.32421875 C2.18886719 9.35224609 2.18242187 10.38027344 2.17578125 11.43945312 C2.15902344 12.51130859 2.14226562 13.58316406 2.125 14.6875 C2.11597656 15.77095703 2.10695313 16.85441406 2.09765625 17.97070312 C2.0740734 20.6473571 2.04116126 23.32356797 2 26 C0.02 26 -1.96 26 -4 26 C-4.22224251 23.41718164 -4.42823488 20.83477813 -4.625 18.25 C-4.68945312 17.52039063 -4.75390625 16.79078125 -4.8203125 16.0390625 C-5.10381649 12.14088264 -5.27081383 9.29354678 -3 6 C-2.67 6 -2.34 6 -2 6 C-1.34 4.02 -0.68 2.04 0 0 Z " fill="#E81813" transform="translate(335,127)"/>
<path d="M0 0 C0.99 0 1.98 0 3 0 C3.33 3.96 3.66 7.92 4 12 C4.33 12 4.66 12 5 12 C5 17.94 5 23.88 5 30 C3.68 29.34 2.36 28.68 1 28 C1 23.05 1 18.1 1 13 C0.34 13 -0.32 13 -1 13 C-1.02686553 11.02090602 -1.04633375 9.04171029 -1.0625 7.0625 C-1.07410156 5.96035156 -1.08570313 4.85820313 -1.09765625 3.72265625 C-1 1 -1 1 0 0 Z " fill="#E91913" transform="translate(130,96)"/>
<path d="M0 0 C1.5625 1.1875 1.5625 1.1875 3 3 C2.67 4.65 2.34 6.3 2 8 C-6.58 8 -15.16 8 -24 8 C-24 6.68 -24 5.36 -24 4 C-16.08 3.67 -8.16 3.34 0 3 C0 2.01 0 1.02 0 0 Z " fill="#E81913" transform="translate(73,141)"/>
<path d="M0 0 C0.99 0 1.98 0 3 0 C3 1.98 3 3.96 3 6 C3.99 6.33 4.98 6.66 6 7 C6 11.95 6 16.9 6 22 C4.02 22 2.04 22 0 22 C0 14.74 0 7.48 0 0 Z " fill="#E91813" transform="translate(451,131)"/>
<path d="M0 0 C1.65 0 3.3 0 5 0 C5 1.32 5 2.64 5 4 C3.68 4.33 2.36 4.66 1 5 C0.67 10.61 0.34 16.22 0 22 C-1.65 22 -3.3 22 -5 22 C-5.05380578 19.20807795 -5.09357669 16.4171859 -5.125 13.625 C-5.14175781 12.8309375 -5.15851563 12.036875 -5.17578125 11.21875 C-5.19335473 9.14507985 -5.10335168 7.07116759 -5 5 C-4.34 4.34 -3.68 3.68 -3 3 C-1.68 3 -0.36 3 1 3 C0.67 2.01 0.34 1.02 0 0 Z " fill="#E81A14" transform="translate(296,131)"/>
<path d="M0 0 C1.20269531 -0.00257813 2.40539062 -0.00515625 3.64453125 -0.0078125 C4.90652344 -0.00007812 6.16851562 0.00765625 7.46875 0.015625 C8.73074219 0.00789062 9.99273437 0.00015625 11.29296875 -0.0078125 C12.49566406 -0.00523437 13.69835937 -0.00265625 14.9375 0 C16.04544922 0.00225586 17.15339844 0.00451172 18.29492188 0.00683594 C20.96875 0.265625 20.96875 0.265625 22.96875 2.265625 C22.59375 4.890625 22.59375 4.890625 21.96875 7.265625 C18.92032135 8.17464439 16.37213364 8.32735867 13.203125 8.14453125 C12.31367188 8.09619141 11.42421875 8.04785156 10.5078125 7.99804688 C9.58742187 7.94197266 8.66703125 7.88589844 7.71875 7.828125 C6.78289062 7.77591797 5.84703125 7.72371094 4.8828125 7.66992188 C2.57776113 7.54055675 0.27317711 7.40560466 -2.03125 7.265625 C-2.03125 6.935625 -2.03125 6.605625 -2.03125 6.265625 C5.55875 6.265625 13.14875 6.265625 20.96875 6.265625 C20.96875 4.945625 20.96875 3.625625 20.96875 2.265625 C16.65626391 2.23675963 12.34380238 2.21887245 8.03125 2.203125 C6.79955078 2.19474609 5.56785156 2.18636719 4.29882812 2.17773438 C3.12900391 2.17451172 1.95917969 2.17128906 0.75390625 2.16796875 C-0.33011475 2.16273193 -1.41413574 2.15749512 -2.53100586 2.15209961 C-4.97174948 1.98135603 -4.97174948 1.98135603 -6.03125 3.265625 C-6.23729085 4.59344378 -6.3975459 5.92858395 -6.53125 7.265625 C-6.92013889 11.15451389 -6.92013889 11.15451389 -8.03125 12.265625 C-8.216875 14.06 -8.216875 14.06 -8.40625 15.890625 C-8.87536507 20.15111269 -10.18514572 23.41288563 -12.03125 27.265625 C-12.36125 27.265625 -12.69125 27.265625 -13.03125 27.265625 C-12.60427085 21.28791693 -11.51701744 15.6356806 -10.09375 9.828125 C-9.92391602 9.11785156 -9.75408203 8.40757812 -9.57910156 7.67578125 C-7.92710087 1.13071185 -6.67394053 0.01358859 0 0 Z " fill="#B12826" transform="translate(164.03125,142.734375)"/>
<path d="M0 0 C0.66 0 1.32 0 2 0 C2.33 0.66 2.66 1.32 3 2 C6.0399648 2.69337792 6.0399648 2.69337792 9.5625 3.125 C11.35880859 3.37636719 11.35880859 3.37636719 13.19140625 3.6328125 C14.11824219 3.75398437 15.04507813 3.87515625 16 4 C16.66 3.01 17.32 2.02 18 1 C18 2.98 18 4.96 18 7 C13.05 7.33 8.1 7.66 3 8 C2.34 9.65 1.68 11.3 1 13 C0.01 12.67 -0.98 12.34 -2 12 C-2.05395478 10.37536158 -2.09277195 8.75021459 -2.125 7.125 C-2.14820313 6.22007812 -2.17140625 5.31515625 -2.1953125 4.3828125 C-2 2 -2 2 0 0 Z " fill="#EA1910" transform="translate(237,136)"/>
<path d="M0 0 C4.82360189 -0.19294408 8.49646738 0.24252386 13 2 C13 3.32 13 4.64 13 6 C13.66 6 14.32 6 15 6 C15 9.3 15 12.6 15 16 C13.02 16.33 11.04 16.66 9 17 C9.01160156 16.14535156 9.02320313 15.29070312 9.03515625 14.41015625 C9.04417969 13.30542969 9.05320312 12.20070312 9.0625 11.0625 C9.07410156 9.96035156 9.08570313 8.85820312 9.09765625 7.72265625 C9.31262571 5.08552366 9.31262571 5.08552366 8 4 C5.32941149 3.85884839 2.67567762 3.95752893 0 4 C0 2.68 0 1.36 0 0 Z " fill="#E81A12" transform="translate(350,131)"/>
<path d="M0 0 C0.66 0.33 1.32 0.66 2 1 C2.02710123 3.5625718 2.04688771 6.12485365 2.0625 8.6875 C2.07087891 9.40873047 2.07925781 10.12996094 2.08789062 10.87304688 C2.10543632 14.71555382 1.93524221 18.26639526 1 22 C-0.65 22 -2.3 22 -4 22 C-4.02689216 20.52093108 -4.04634621 19.04172517 -4.0625 17.5625 C-4.07410156 16.73878906 -4.08570312 15.91507813 -4.09765625 15.06640625 C-4 13 -4 13 -3 12 C-2.77097235 10.00418759 -2.54255296 8.00829833 -2.3203125 6.01171875 C-1.95553678 3.72074928 -1.22822769 1.96516431 0 0 Z " fill="#DB1E18" transform="translate(121,98)"/>
<path d="M0 0 C0.99 0 1.98 0 3 0 C5.14965431 3.22448147 5.22152284 3.79930965 4.9765625 7.44921875 C4.89921875 8.72055664 4.89921875 8.72055664 4.8203125 10.01757812 C4.75585938 10.89865234 4.69140625 11.77972656 4.625 12.6875 C4.56828125 13.58017578 4.5115625 14.47285156 4.453125 15.39257812 C4.31173702 17.59587413 4.16034022 19.79801539 4 22 C2.68 22 1.36 22 0 22 C0 14.74 0 7.48 0 0 Z " fill="#EC1712" transform="translate(371,131)"/>
<path d="M0 0 C3.53233755 1.17744585 3.86308075 1.95605641 5.6875 5.0625 C6.12449219 5.79597656 6.56148438 6.52945313 7.01171875 7.28515625 C7.33785156 7.85105469 7.66398437 8.41695312 8 9 C6.0625 8.6875 6.0625 8.6875 4 8 C3.67 7.01 3.34 6.02 3 5 C2.67 15.23 2.34 25.46 2 36 C1.34 36 0.68 36 0 36 C0 24.12 0 12.24 0 0 Z " fill="#BD2725" transform="translate(305,118)"/>
<path d="M0 0 C-0.99 0.495 -0.99 0.495 -2 1 C-2.46954261 4.04581269 -2.46954261 4.04581269 -2.625 7.5625 C-2.69976562 8.76003906 -2.77453125 9.95757812 -2.8515625 11.19140625 C-2.90054687 12.11824219 -2.94953125 13.04507813 -3 14 C1.14093698 14.20970559 1.14093698 14.20970559 5 13 C5.65555119 10.47266765 5.65555119 10.47266765 6 8 C6.33 8 6.66 8 7 8 C7.1875 10.875 7.1875 10.875 7 14 C2.7975546 16.80163026 -0.00104935 16.14489712 -5 16 C-5.33 12.7 -5.66 9.4 -6 6 C-6.66 6.66 -7.32 7.32 -8 8 C-8.99 8 -9.98 8 -11 8 C-10.67264472 5.05380252 -10.37532687 2.64639628 -8.875 0.0625 C-5.86231514 -1.64468809 -3.2689055 -0.67845209 0 0 Z " fill="#D3211B" transform="translate(270,132)"/>
<path d="M0 0 C0 0.99 0 1.98 0 3 C0.66 3 1.32 3 2 3 C1.67 4.32 1.34 5.64 1 7 C0.484375 6.484375 -0.03125 5.96875 -0.5625 5.4375 C-3.9710271 3.42734299 -6.23106857 4.20272604 -10 5 C-10.33 5.99 -10.66 6.98 -11 8 C-11 7.34 -11 6.68 -11 6 C-12.98 6.99 -12.98 6.99 -15 8 C-15.25 5.6875 -15.25 5.6875 -15 3 C-10.2053797 -1.62928856 -6.1109753 -0.90161931 0 0 Z " fill="#E81A13" transform="translate(250,130)"/>
<path d="M0 0 C2.77141717 -0.08089542 5.54047819 -0.14044062 8.3125 -0.1875 C9.09818359 -0.21263672 9.88386719 -0.23777344 10.69335938 -0.26367188 C11.45068359 -0.27333984 12.20800781 -0.28300781 12.98828125 -0.29296875 C14.03302612 -0.31653442 14.03302612 -0.31653442 15.09887695 -0.34057617 C17.54489783 0.09761557 18.42702086 1.13437358 20 3 C19.67 3.66 19.34 4.32 19 5 C16.525 4.505 16.525 4.505 14 4 C14 4.66 14 5.32 14 6 C14.66 6 15.32 6 16 6 C15.125 9.875 15.125 9.875 14 11 C10.5 11.125 10.5 11.125 7 11 C6 10 6 10 5.9375 6.4375 C5.958125 5.303125 5.97875 4.16875 6 3 C7.65 3 9.3 3 11 3 C11 2.34 11 1.68 11 1 C7.37 1 3.74 1 0 1 C0 0.67 0 0.34 0 0 Z M7 5 C7 6.65 7 8.3 7 10 C8.65 10 10.3 10 12 10 C12.59070014 8.05396726 12.59070014 8.05396726 13 6 C11.93354885 4.70366379 11.93354885 4.70366379 9.4375 4.9375 C8.633125 4.958125 7.82875 4.97875 7 5 Z " fill="#D1201D" transform="translate(207,120)"/>
<path d="M0 0 C0.33 0 0.66 0 1 0 C1.50755197 3.68650112 2.00467512 7.37433775 2.5 11.0625 C2.64308594 12.10083984 2.78617188 13.13917969 2.93359375 14.20898438 C3.64201705 19.5221591 4.18248153 24.63960518 4 30 C3.67 30 3.34 30 3 30 C2.67 28.02 2.34 26.04 2 24 C0.68 24 -0.64 24 -2 24 C-1.7525 25.9490625 -1.7525 25.9490625 -1.5 27.9375 C-0.9684362 32.65419287 -0.92470459 37.25638935 -1 42 C-1.33 42 -1.66 42 -2 42 C-4.29612756 26.25512528 -4.29612756 26.25512528 -4 19 C-3.67 19.66 -3.34 20.32 -3 21 C-2.34 20.67 -1.68 20.34 -1 20 C-0.09761253 17.29283758 0.11851302 15.76223232 0.09765625 12.98828125 C0.09443359 12.23095703 0.09121094 11.47363281 0.08789062 10.69335938 C0.07532227 9.51483398 0.07532227 9.51483398 0.0625 8.3125 C0.05798828 7.51521484 0.05347656 6.71792969 0.04882812 5.89648438 C0.0370585 3.93095743 0.01912348 1.96546915 0 0 Z " fill="#BE2421" transform="translate(141,152)"/>
<path d="M0 0 C1.8762207 0.23217773 1.8762207 0.23217773 4 1 C5.11401367 2.84790039 5.11401367 2.84790039 5.98046875 5.28515625 C6.30966309 6.19023926 6.63885742 7.09532227 6.97802734 8.02783203 C7.31527832 9.00864746 7.6525293 9.98946289 8 11 C8.35658691 11.99757324 8.71317383 12.99514648 9.08056641 14.02294922 C10.18670459 17.15199371 11.25372394 20.29214151 12.3125 23.4375 C12.68439453 24.51193359 13.05628906 25.58636719 13.43945312 26.69335938 C13.78556641 27.72138672 14.13167969 28.74941406 14.48828125 29.80859375 C14.80321533 30.73470459 15.11814941 31.66081543 15.44262695 32.61499023 C16 35 16 35 15 38 C13.8226504 34.92064034 12.66002109 31.83592484 11.5 28.75 C11.16613281 27.87730469 10.83226563 27.00460938 10.48828125 26.10546875 C10.17246094 25.26113281 9.85664062 24.41679687 9.53125 23.546875 C9.23798828 22.77182617 8.94472656 21.99677734 8.64257812 21.19824219 C8 19 8 19 8 15 C7.34 15 6.68 15 6 15 C5.71125 13.88625 5.4225 12.7725 5.125 11.625 C4.30758671 7.99708908 4.30758671 7.99708908 2 6 C2 4.68 2 3.36 2 2 C1.34 2 0.68 2 0 2 C0 2.66 0 3.32 0 4 C-0.66 4 -1.32 4 -2 4 C-1.34 2.68 -0.68 1.36 0 0 Z " fill="#C12421" transform="translate(87,109)"/>
<path d="M0 0 C0.33 0 0.66 0 1 0 C1.027193 1.58323688 1.04648306 3.16661062 1.0625 4.75 C1.07410156 5.63171875 1.08570312 6.5134375 1.09765625 7.421875 C1.00826198 9.7818838 0.66912821 11.74498524 0 14 C1.32 14.66 2.64 15.32 4 16 C3.48041715 20.37934119 2.94324258 24.68803391 2 29 C1.67 29 1.34 29 1 29 C0.67 25.37 0.34 21.74 0 18 C-1.96276032 20.94414048 -2.25476379 21.80204933 -2.5 25.125 C-2.7475 27.043125 -2.7475 27.043125 -3 29 C-3.66 29.33 -4.32 29.66 -5 30 C-4.43617776 23.00634512 -3.37639601 16.23899157 -1.9375 9.375 C-1.75123047 8.46621094 -1.56496094 7.55742188 -1.37304688 6.62109375 C-0.91982704 4.4130997 -0.46210307 2.20614876 0 0 Z " fill="#C5231E" transform="translate(122,81)"/>
<path d="M0 0 C0.33 0 0.66 0 1 0 C1 7.92 1 15.84 1 24 C-2 24 -5 24 -8 24 C-9.27875 24.061875 -10.5575 24.12375 -11.875 24.1875 C-15.73351059 24.16626049 -17.9904378 23.57962474 -21 21 C-23.90940049 16.58573719 -24.31378312 13.22971874 -24 8 C-23.67 8 -23.34 8 -23 8 C-22.71125 9.051875 -22.4225 10.10375 -22.125 11.1875 C-20.85799513 15.71651082 -20.85799513 15.71651082 -19 20 C-16.95894361 20.88693303 -16.95894361 20.88693303 -15 21 C-15 21.66 -15 22.32 -15 23 C-13.02 23 -11.04 23 -9 23 C-9 22.34 -9 21.68 -9 21 C-5.02958963 20.77942165 -3.76687864 21.11656068 0 23 C0 15.41 0 7.82 0 0 Z " fill="#BA2722" transform="translate(282,130)"/>
<path d="M0 0 C0.38133299 1.9914056 0.71325582 3.99279077 1 6 C0 7 0 7 -2.94140625 7.09765625 C-4.73384766 7.08025391 -4.73384766 7.08025391 -6.5625 7.0625 C-8.35880859 7.04896484 -8.35880859 7.04896484 -10.19140625 7.03515625 C-11.11824219 7.02355469 -12.04507813 7.01195312 -13 7 C-12.34 5.68 -11.68 4.36 -11 3 C-10.34 3 -9.68 3 -9 3 C-9 2.34 -9 1.68 -9 1 C-3.375 -1.125 -3.375 -1.125 0 0 Z " fill="#D11E19" transform="translate(254,146)"/>
<path d="M0 0 C0.33 0 0.66 0 1 0 C1.71797317 5.28283133 2.42985062 10.56643606 3.13623047 15.85083008 C3.37709208 17.64629978 3.61958251 19.4415518 3.86376953 21.23657227 C4.21561097 23.82511999 4.56147797 26.41440862 4.90625 29.00390625 C5.0156189 29.79898087 5.12498779 30.59405548 5.2376709 31.41322327 C5.84006329 35.98822379 6.10737825 40.38541989 6 45 C5.67 45 5.34 45 5 45 C4.80083984 43.51886719 4.80083984 43.51886719 4.59765625 42.0078125 C4.42105469 40.72648437 4.24445313 39.44515625 4.0625 38.125 C3.80146484 36.21074219 3.80146484 36.21074219 3.53515625 34.2578125 C3.18566773 31.12440546 3.18566773 31.12440546 2 29 C1.7724985 27.12943209 1.59037189 25.25314042 1.4375 23.375 C1.35371094 22.37210938 1.26992187 21.36921875 1.18359375 20.3359375 C1.12300781 19.56507812 1.06242188 18.79421875 1 18 C0.67 18 0.34 18 0 18 C0 12.06 0 6.12 0 0 Z " fill="#BB2623" transform="translate(133,91)"/>
<path d="M0 0 C1.65 0.33 3.3 0.66 5 1 C4.979375 2.2375 4.95875 3.475 4.9375 4.75 C4.93233319 7.6640825 5.06984442 10.20953327 6 13 C4.35 12.67 2.7 12.34 1 12 C0.63597631 10.56496445 0.28413409 9.12683494 -0.0625 7.6875 C-0.25972656 6.88699219 -0.45695312 6.08648437 -0.66015625 5.26171875 C-1 3 -1 3 0 0 Z " fill="#D31E19" transform="translate(342,137)"/>
<path d="M0 0 C0.99 0 1.98 0 3 0 C3 5.28 3 10.56 3 16 C1.68 16 0.36 16 -1 16 C-1.02685095 13.52076199 -1.04676547 11.0418116 -1.0625 8.5625 C-1.07506836 7.50192383 -1.07506836 7.50192383 -1.08789062 6.41992188 C-1.09653588 4.61306441 -1.05220011 2.80612397 -1 1 C-0.67 0.67 -0.34 0.34 0 0 Z " fill="#EA1912" transform="translate(388,137)"/>
<path d="M0 0 C0 5.61 0 11.22 0 17 C-1.32 17 -2.64 17 -4 17 C-4.08097324 14.72975032 -4.13917704 12.45867925 -4.1875 10.1875 C-4.22230469 8.92292969 -4.25710938 7.65835938 -4.29296875 6.35546875 C-4 3 -4 3 -2.55078125 1.05078125 C-1 0 -1 0 0 0 Z " fill="#EE1712" transform="translate(311,136)"/>
<path d="M0 0 C7.59 0 15.18 0 23 0 C23 0.33 23 0.66 23 1 C17.72 1 12.44 1 7 1 C7 1.66 7 2.32 7 3 C6.01 3.66 5.02 4.32 4 5 C2.97889461 7.87116002 2.97889461 7.87116002 2.3125 11.125 C2.06113281 12.22070312 1.80976563 13.31640625 1.55078125 14.4453125 C1.36902344 15.28835937 1.18726563 16.13140625 1 17 C0.67 17 0.34 17 0 17 C0 12.38 0 7.76 0 3 C0.99 2.67 1.98 2.34 3 2 C2.01 1.34 1.02 0.68 0 0 Z " fill="#D32019" transform="translate(159,144)"/>
<path d="M0 0 C0.928125 0.2784375 0.928125 0.2784375 1.875 0.5625 C4.04160178 1.23686176 4.04160178 1.23686176 6 0 C6.33 0.99 6.66 1.98 7 3 C7.99 3.33 8.98 3.66 10 4 C10 5.32 10 6.64 10 8 C8.35 7.67 6.7 7.34 5 7 C5 7.66 5 8.32 5 9 C4.34 9 3.68 9 3 9 C3 8.34 3 7.68 3 7 C2.34 7 1.68 7 1 7 C0.67 4.69 0.34 2.38 0 0 Z " fill="#EE170F" transform="translate(411,127)"/>
<path d="M0 0 C0 3.60573896 -0.81707462 4.41336566 -3 7.1875 C-3.556875 7.90292969 -4.11375 8.61835938 -4.6875 9.35546875 C-5.120625 9.89816406 -5.55375 10.44085938 -6 11 C-9.28788824 7.88983545 -11.83735988 4.98381075 -14 1 C-12.0625 1.3125 -12.0625 1.3125 -10 2 C-9.67 2.99 -9.34 3.98 -9 5 C-7.686298 4.3566152 -6.37407102 3.71021785 -5.0625 3.0625 C-3.96615234 2.52302734 -3.96615234 2.52302734 -2.84765625 1.97265625 C-1.03750973 1.13628173 -1.03750973 1.13628173 0 0 Z " fill="#CE221E" transform="translate(328,138)"/>
<path d="M0 0 C0.33 0 0.66 0 1 0 C1 4.95 1 9.9 1 15 C1.66 15.33 2.32 15.66 3 16 C1.02 16.99 1.02 16.99 -1 18 C-3.13586678 14.79619983 -3.23132175 13.98060033 -3.125 10.3125 C-3.10695312 9.50425781 -3.08890625 8.69601563 -3.0703125 7.86328125 C-3.04710937 7.24839844 -3.02390625 6.63351563 -3 6 C-2.01 6 -1.02 6 0 6 C0 4.02 0 2.04 0 0 Z " fill="#EA1813" transform="translate(142,170)"/>
<path d="M0 0 C0.99 0.33 1.98 0.66 3 1 C3 1.66 3 2.32 3 3 C2.01 3.495 2.01 3.495 1 4 C0.566875 5.2375 0.566875 5.2375 0.125 6.5 C-0.24625 7.325 -0.6175 8.15 -1 9 C-3 9.6875 -3 9.6875 -5 10 C-5.66 10.66 -6.32 11.32 -7 12 C-8.125 9.75 -8.125 9.75 -9 7 C-8.125 4.6875 -8.125 4.6875 -7 3 C-6.67 3.99 -6.34 4.98 -6 6 C-4.68 6 -3.36 6 -2 6 C-2.33 4.68 -2.66 3.36 -3 2 C-2.01 1.34 -1.02 0.68 0 0 Z " fill="#E91911" transform="translate(326,133)"/>
<path d="M0 0 C1.2065625 0.0309375 1.2065625 0.0309375 2.4375 0.0625 C3.0975 1.7125 3.7575 3.3625 4.4375 5.0625 C3.1875 6.625 3.1875 6.625 1.4375 8.0625 C-0.69995922 7.81103421 -2.02175779 7.60324221 -3.5625 6.0625 C-3.6875 3.5625 -3.6875 3.5625 -3.5625 1.0625 C-2.5625 0.0625 -2.5625 0.0625 0 0 Z " fill="#CF2120" transform="translate(399.5625,119.9375)"/>
<path d="M0 0 C0.33 0 0.66 0 1 0 C1.02689216 1.47906892 1.04634621 2.95827483 1.0625 4.4375 C1.07410156 5.26121094 1.08570312 6.08492187 1.09765625 6.93359375 C1 9 1 9 0 10 C-0.12375 11.134375 -0.2475 12.26875 -0.375 13.4375 C-0.58125 14.613125 -0.7875 15.78875 -1 17 C-1.99 17.66 -2.98 18.32 -4 19 C-5 18 -5 18 -5.09765625 16.15234375 C-5.06510417 14.1015625 -5.03255208 12.05078125 -5 10 C-4.01 9.67 -3.02 9.34 -2 9 C-1.7834375 7.0509375 -1.7834375 7.0509375 -1.5625 5.0625 C-1.125 1.125 -1.125 1.125 0 0 Z " fill="#E91913" transform="translate(114,138)"/>
<path d="M0 0 C0.33 0.66 0.66 1.32 1 2 C1.99 2 2.98 2 4 2 C3.67 2.66 3.34 3.32 3 4 C2.77532169 5.53668865 2.59203195 7.07968054 2.4375 8.625 C2.35371094 9.44226563 2.26992187 10.25953125 2.18359375 11.1015625 C2.12300781 11.72804687 2.06242188 12.35453125 2 13 C0.02 13 -1.96 13 -4 13 C-3.34 12.67 -2.68 12.34 -2 12 C-2.02320313 11.38511719 -2.04640625 10.77023438 -2.0703125 10.13671875 C-2.08835938 9.32847656 -2.10640625 8.52023438 -2.125 7.6875 C-2.14820313 6.88699219 -2.17140625 6.08648437 -2.1953125 5.26171875 C-2 3 -2 3 0 0 Z " fill="#E91914" transform="translate(145,196)"/>
<path d="M0 0 C2 1.5625 2 1.5625 3 3 C1.68 3 0.36 3 -1 3 C-1 2.34 -1 1.68 -1 1 C-6.70124496 1.39318931 -10.7416398 1.84302933 -15 6 C-16.0763504 9.29632311 -16.61911597 12.5589098 -17 16 C-17.33 16 -17.66 16 -18 16 C-18.44223108 7.30278884 -18.44223108 7.30278884 -15 3 C-10.19489981 -1.20446267 -6.00491026 -1.46369688 0 0 Z " fill="#C3241F" transform="translate(440,130)"/>
<path d="M0 0 C0.33 0 0.66 0 1 0 C1.33 2.64 1.66 5.28 2 8 C2.99 8.33 3.98 8.66 5 9 C4.88490339 10.41750563 4.75746342 11.83401169 4.625 13.25 C4.55539063 14.03890625 4.48578125 14.8278125 4.4140625 15.640625 C4 18 4 18 2 22 C2.33 18.37 2.66 14.74 3 11 C1.35 11.66 -0.3 12.32 -2 13 C-1.85769192 11.58297487 -1.71099254 10.1663904 -1.5625 8.75 C-1.48128906 7.96109375 -1.40007812 7.1721875 -1.31640625 6.359375 C-1.02365007 4.17635361 -0.57935581 2.1226818 0 0 Z " fill="#C9241F" transform="translate(116,111)"/>
<path d="M0 0 C0.66 0 1.32 0 2 0 C2 1.98 2 3.96 2 6 C2.66 6 3.32 6 4 6 C4.99 9.63 5.98 13.26 7 17 C7.33 17 7.66 17 8 17 C8 19.64 8 22.28 8 25 C5.47530171 21.21295257 4.29540264 17.36108695 2.875 13.0625 C2.59785156 12.25103516 2.32070312 11.43957031 2.03515625 10.60351562 C1.77347656 9.81783203 1.51179688 9.03214844 1.2421875 8.22265625 C1.0035498 7.50859619 0.76491211 6.79453613 0.51904297 6.05883789 C0 4 0 4 0 0 Z " fill="#BE2220" transform="translate(93,137)"/>
<path d="M0 0 C3.63 0.33 7.26 0.66 11 1 C12.1577506 4.47325181 12.06866652 7.36067448 12 11 C11.01 11 10.02 11 9 11 C9.33 10.67 9.66 10.34 10 10 C10.04092937 7.66702567 10.04241723 5.33294775 10 3 C7.69 2.67 5.38 2.34 3 2 C3 5.3 3 8.6 3 12 C2.67 12 2.34 12 2 12 C2 9.36 2 6.72 2 4 C1.01 4.33 0.02 4.66 -1 5 C-0.67 3.35 -0.34 1.7 0 0 Z " fill="#CE2220" transform="translate(211,134)"/>
<path d="M0 0 C0.66 0.33 1.32 0.66 2 1 C1.67 1.33 1.34 1.66 1 2 C0.79395915 3.32781878 0.6337041 4.66295895 0.5 6 C0.11111111 9.88888889 0.11111111 9.88888889 -1 11 C-1.185625 12.794375 -1.185625 12.794375 -1.375 14.625 C-1.84411507 18.88548769 -3.15389572 22.14726063 -5 26 C-5.33 26 -5.66 26 -6 26 C-5.57056654 19.9879316 -4.45704913 14.333391 -3 8.5 C-2.82178711 7.78134766 -2.64357422 7.06269531 -2.45996094 6.32226562 C-1.13112942 1.13112942 -1.13112942 1.13112942 0 0 Z " fill="#C12623" transform="translate(157,144)"/>
<path d="M0 0 C-0.33 3.96 -0.66 7.92 -1 12 C-2.32 12 -3.64 12 -5 12 C-5.125 4.375 -5.125 4.375 -4 1 C-2 0 -2 0 0 0 Z " fill="#E71912" transform="translate(156,166)"/>
<path d="M0 0 C0.99 0.495 0.99 0.495 2 1 C2 1.99 2 2.98 2 4 C3.32 4.33 4.64 4.66 6 5 C5.67 6.32 5.34 7.64 5 9 C4.34 9 3.68 9 3 9 C2.34 10.65 1.68 12.3 1 14 C0.67 14 0.34 14 0 14 C0 9.38 0 4.76 0 0 Z " fill="#EA1A0F" transform="translate(307,122)"/>
<path d="M0 0 C0.66 0 1.32 0 2 0 C2 1.65 2 3.3 2 5 C3.32 5.33 4.64 5.66 6 6 C5.67 7.32 5.34 8.64 5 10 C5.99 10 6.98 10 8 10 C8.33 8.68 8.66 7.36 9 6 C9.66 6.33 10.32 6.66 11 7 C10.34 8.65 9.68 10.3 9 12 C7.35 12 5.7 12 4 12 C3.32645501 10.56570999 2.66140299 9.12742943 2 7.6875 C1.62875 6.88699219 1.2575 6.08648437 0.875 5.26171875 C0 3 0 3 0 0 Z " fill="#C32321" transform="translate(101,162)"/>
<path d="M0 0 C0.66 0.33 1.32 0.66 2 1 C2 4.96 2 8.92 2 13 C0.68 13 -0.64 13 -2 13 C-2.05447047 11.58376784 -2.09300508 10.16691809 -2.125 8.75 C-2.14820312 7.96109375 -2.17140625 7.1721875 -2.1953125 6.359375 C-1.9828378 3.79268059 -1.28654105 2.2083933 0 0 Z " fill="#E91911" transform="translate(119,107)"/>
<path d="M0 0 C0.20367187 0.64453125 0.40734375 1.2890625 0.6171875 1.953125 C1.8667935 4.31153872 1.8667935 4.31153872 4.8203125 4.609375 C5.91085938 4.65578125 7.00140625 4.7021875 8.125 4.75 C9.76855469 4.83507812 9.76855469 4.83507812 11.4453125 4.921875 C12.28835937 4.94765625 13.13140625 4.9734375 14 5 C14.33 4.01 14.66 3.02 15 2 C15.99 2.33 16.98 2.66 18 3 C18 2.01 18 1.02 18 0 C19.32 0.66 20.64 1.32 22 2 C15.48479983 6.96396203 8.97766883 6.65232949 1 6 C0 5 0 5 -0.0625 2.4375 C-0.041875 1.633125 -0.02125 0.82875 0 0 Z " fill="#B01B1B" transform="translate(206,148)"/>
<path d="M0 0 C0.99 0.66 1.98 1.32 3 2 C3.5 4.875 3.5 4.875 3 8 C0.5 10.375 0.5 10.375 -2 12 C-3.125 8.25 -3.125 8.25 -2 6 C-1.34 6 -0.68 6 0 6 C0 4.02 0 2.04 0 0 Z " fill="#EA190D" transform="translate(441,139)"/>
<path d="M0 0 C1 3 1 3 0.0625 5.1875 C-0.4634375 6.0846875 -0.4634375 6.0846875 -1 7 C-0.34 7 0.32 7 1 7 C4.27137992 12.23420787 4.10643764 15.16605611 3 21 C2.67 21 2.34 21 2 21 C1.96261719 20.31292969 1.92523438 19.62585938 1.88671875 18.91796875 C1.78810547 17.56638672 1.78810547 17.56638672 1.6875 16.1875 C1.60048828 14.84751953 1.60048828 14.84751953 1.51171875 13.48046875 C0.92551784 10.63896052 0.10908754 9.88939092 -2 8 C-2.6875 5.3125 -2.6875 5.3125 -3 3 C-2.01 2.67 -1.02 2.34 0 2 C0 1.34 0 0.68 0 0 Z " fill="#C1261E" transform="translate(227,126)"/>
<path d="M0 0 C0.33 0 0.66 0 1 0 C2.42857143 8.57142857 2.42857143 8.57142857 0 12 C-0.66 12 -1.32 12 -2 12 C-2.05395478 10.37536158 -2.09277195 8.75021459 -2.125 7.125 C-2.14820313 6.22007812 -2.17140625 5.31515625 -2.1953125 4.3828125 C-2 2 -2 2 0 0 Z " fill="#EA1913" transform="translate(140,161)"/>
<path d="M0 0 C0.99 0.33 1.98 0.66 3 1 C2.39516129 8.37903226 2.39516129 8.37903226 0.6875 11.0625 C-1 12 -1 12 -3.1875 11.6875 C-3.785625 11.460625 -4.38375 11.23375 -5 11 C-5 10.67 -5 10.34 -5 10 C-3.35 10 -1.7 10 0 10 C0 6.7 0 3.4 0 0 Z " fill="#C22021" transform="translate(147,199)"/>
<path d="M0 0 C1.32 0.33 2.64 0.66 4 1 C4 3.64 4 6.28 4 9 C2.68 8.67 1.36 8.34 0 8 C0 5.36 0 2.72 0 0 Z " fill="#EA1A11" transform="translate(343,137)"/>
<path d="M0 0 C0.33 0 0.66 0 1 0 C1.37952295 6.19887485 0.8352113 10.4477112 -2 16 C-2.33 16 -2.66 16 -3 16 C-2.40984815 10.49191603 -1.43336231 5.35121931 0 0 Z " fill="#C02826" transform="translate(150,170)"/>
<path d="M0 0 C0.66 0 1.32 0 2 0 C2.33 2.31 2.66 4.62 3 7 C2.01 6.67 1.02 6.34 0 6 C0 8.31 0 10.62 0 13 C-0.66 13 -1.32 13 -2 13 C-1.85769192 11.58297487 -1.71099254 10.1663904 -1.5625 8.75 C-1.48128906 7.96109375 -1.40007812 7.1721875 -1.31640625 6.359375 C-1.02365007 4.17635361 -0.57935581 2.1226818 0 0 Z " fill="#C3221F" transform="translate(113,125)"/>
<path d="M0 0 C-0.33 1.32 -0.66 2.64 -1 4 C-2.32 4 -3.64 4 -5 4 C-5 4.66 -5 5.32 -5 6 C-4.01 6.33 -3.02 6.66 -2 7 C-3.65 7 -5.3 7 -7 7 C-7 5.35 -7 3.7 -7 2 C-2.25 0 -2.25 0 0 0 Z " fill="#ED1714" transform="translate(293,128)"/>
<path d="M0 0 C0.99 0 1.98 0 3 0 C5.28571429 8.42857143 5.28571429 8.42857143 5 13 C3.09610151 10.14415227 2.30537823 8.0688238 1.375 4.8125 C0.98441406 3.46091797 0.98441406 3.46091797 0.5859375 2.08203125 C0.39257812 1.39496094 0.19921875 0.70789063 0 0 Z " fill="#C32121" transform="translate(88,124)"/>
<path d="M0 0 C0 1.98 0 3.96 0 6 C-1.32 6.33 -2.64 6.66 -4 7 C-4 5.68 -4 4.36 -4 3 C-4.66 2.67 -5.32 2.34 -6 2 C-2.25 0 -2.25 0 0 0 Z " fill="#E81812" transform="translate(119,122)"/>
<path d="M0 0 C-2.12488996 0.5508974 -4.20477761 1.03233331 -6.375 1.375 C-9.53822678 2.12814923 -12.14165776 3.47111927 -15 5 C-14.02702707 2.34643745 -13.30781348 1.19012009 -10.875 -0.3125 C-6.950201 -1.25103889 -3.97115471 -0.67307707 0 0 Z " fill="#C02524" transform="translate(250,130)"/>
<path d="M0 0 C-0.66 1.32 -1.32 2.64 -2 4 C-4.97 3.505 -4.97 3.505 -8 3 C-8 2.34 -8 1.68 -8 1 C-5.07175348 0.02391783 -3.04386724 -0.08226668 0 0 Z " fill="#E91912" transform="translate(357,149)"/>
<path d="M0 0 C0.6875 1.625 0.6875 1.625 1 4 C-0.4375 7.25 -0.4375 7.25 -2 10 C-2.33 10 -2.66 10 -3 10 C-3.36923077 3.47692308 -3.36923077 3.47692308 -1.5 1.0625 C-1.005 0.711875 -0.51 0.36125 0 0 Z " fill="#CE2520" transform="translate(86,122)"/>
<path d="M0 0 C0.33 0.66 0.66 1.32 1 2 C1.99 2.33 2.98 2.66 4 3 C3.34 3 2.68 3 2 3 C2 3.66 2 4.32 2 5 C0.02 5.33 -1.96 5.66 -4 6 C-3.34 4.68 -2.68 3.36 -2 2 C-1.34 2 -0.68 2 0 2 C0 1.34 0 0.68 0 0 Z " fill="#EF1616" transform="translate(245,147)"/>
<path d="M0 0 C0.763125 0.20625 1.52625 0.4125 2.3125 0.625 C2.3125 1.615 2.3125 2.605 2.3125 3.625 C1.735 3.439375 1.1575 3.25375 0.5625 3.0625 C-1.89442525 2.58476454 -3.33147534 2.86770636 -5.6875 3.625 C-5.6875 2.965 -5.6875 2.305 -5.6875 1.625 C-2.6875 -0.375 -2.6875 -0.375 0 0 Z " fill="#CA231F" transform="translate(245.6875,133.375)"/>
<path d="M0 0 C1.32 0.66 2.64 1.32 4 2 C0.93882432 4.62386487 0.26826873 5 -4 5 C-3.67 4.01 -3.34 3.02 -3 2 C-2.01 2.33 -1.02 2.66 0 3 C0 2.01 0 1.02 0 0 Z " fill="#CA211D" transform="translate(224,148)"/>
<path d="M0 0 C-0.33 1.65 -0.66 3.3 -1 5 C-2.32 4.67 -3.64 4.34 -5 4 C-5 3.01 -5 2.02 -5 1 C-2 0 -2 0 0 0 Z " fill="#F0151A" transform="translate(281,131)"/>
<path d="M0 0 C1.65 0 3.3 0 5 0 C4.34 0.66 3.68 1.32 3 2 C3 3.32 3 4.64 3 6 C2.01 6 1.02 6 0 6 C0 4.02 0 2.04 0 0 Z " fill="#EF1915" transform="translate(397,131)"/>
<path d="M0 0 C1.65 0 3.3 0 5 0 C5 1.32 5 2.64 5 4 C3.35 4 1.7 4 0 4 C0 2.68 0 1.36 0 0 Z " fill="#F11510" transform="translate(296,131)"/>
<path d="M0 0 C1.98 0.495 1.98 0.495 4 1 C4 1.99 4 2.98 4 4 C2.35 4.33 0.7 4.66 -1 5 C-0.67 3.35 -0.34 1.7 0 0 Z " fill="#EB1913" transform="translate(460,131)"/>
<path d="M0 0 C0.66 1.32 1.32 2.64 2 4 C1.01 4.99 0.02 5.98 -1 7 C-1.625 4.625 -1.625 4.625 -2 2 C-1.34 1.34 -0.68 0.68 0 0 Z " fill="#EB1914" transform="translate(81,128)"/>
<path d="M0 0 C0.66 0 1.32 0 2 0 C1.67 1.32 1.34 2.64 1 4 C0.67 2.68 0.34 1.36 0 0 Z " fill="#663434" transform="translate(407,149)"/>
<path d="M0 0 C0.99 0.33 1.98 0.66 3 1 C3 1.66 3 2.32 3 3 C2.34 3 1.68 3 1 3 C0.67 2.01 0.34 1.02 0 0 Z " fill="#A82828" transform="translate(255,146)"/>
<path d="M0 0 C0.66 0 1.32 0 2 0 C1.67 0.99 1.34 1.98 1 3 C0.67 2.01 0.34 1.02 0 0 Z " fill="#952424" transform="translate(419,138)"/>
<path d="M0 0 C1 4 1 4 1 4 Z " fill="#DF0000" transform="translate(448,136)"/>
<path d="" fill="#7F2A00" transform="translate(0,0)"/>
<path d="M0 0 C0.99 0.495 0.99 0.495 2 1 C1.01 1.495 1.01 1.495 0 2 C0 1.34 0 0.68 0 0 Z " fill="#9C3131" transform="translate(216,127)"/>
<path d="" fill="#000000" transform="translate(0,0)"/>
<path d="" fill="#BF0000" transform="translate(0,0)"/>
<path d="" fill="#000000" transform="translate(0,0)"/>
<path d="" fill="#808000" transform="translate(0,0)"/>
<path d="" fill="#FF0000" transform="translate(0,0)"/>
<path d="" fill="#555555" transform="translate(0,0)"/>
<path d="" fill="#000000" transform="translate(0,0)"/>
<path d="" fill="#000000" transform="translate(0,0)"/>
<path d="" fill="#000000" transform="translate(0,0)"/>
<path d="" fill="#552A2A" transform="translate(0,0)"/>
</svg>
